<?xml version="1.0" encoding="iso-8859-1"?>
<!-- Generator: Adobe Illustrator 19.0.0, SVG Export Plug-In . SVG Version: 6.00 Build 0)  -->
<svg version="1.1" id="Capa_1" xmlns="http://www.w3.org/2000/svg" xmlns:xlink="http://www.w3.org/1999/xlink" x="0px" y="0px"
	 viewBox="0 0 512 512" style="enable-background:new 0 0 512 512;" xml:space="preserve">
<g>
	<g>
		<g>
			<path d="M256,361c57.897,0,105-47.103,105-105c0-11.046-8.954-20-20-20c-11.046,0-20,8.954-20,20c0,35.841-29.159,65-65,65
				s-65-29.159-65-65V105c0-35.841,29.159-65,65-65s65,29.159,65,65v51c0,11.046,8.954,20,20,20c11.046,0,20-8.954,20-20v-51
				C361,47.103,313.897,0,256,0c-57.897,0-105,47.103-105,105v151C151,313.897,198.103,361,256,361z"/>
			<path d="M441,256c0-11.046-8.954-20-20-20c-11.046,0-20,8.954-20,20c0,79.953-65.047,145-145,145s-145-65.047-145-145
				c0-11.046-8.954-20-20-20s-20,8.954-20,20c0,95.253,72.361,173.923,165,183.926V472h-59c-11.046,0-20,8.954-20,20
				c0,11.046,8.954,20,20,20h160c11.046,0,20-8.954,20-20c0-11.046-8.954-20-20-20h-61v-32.074C368.639,429.923,441,351.253,441,256
				z"/>
		</g>
	</g>
</g>
<g>
</g>
<g>
</g>
<g>
</g>
<g>
</g>
<g>
</g>
<g>
</g>
<g>
</g>
<g>
</g>
<g>
</g>
<g>
</g>
<g>
</g>
<g>
</g>
<g>
</g>
<g>
</g>
<g>
</g>
</svg>
